# xmcd
#
# Track frame offsets:
# 150
# 29890
# 56668
# 73439
# 95113
# 108974
# 139263
# 158036
# 183199
# 203223
# 231351
# 253512
# 275863
# 294445
# 315498
#
# Disc length: 4630 seconds
#
# Revision: 0
# Processed by: cddbd v1.5.2PL0 Copyright (c) Steve Scherf et al.
# Submitted via: Audion 3.0.2 (http://www.panic.com/audion/)
#
DISCID=ed12140f
DTITLE=Various Artist - CD-MIX-SALSA-02
DYEAR=1900
DGENRE=
TTITLE0=Entra derecho - descarga boricu
TTITLE1=El baile del sillon - Sonora majest
TTITLE2=La negra tomasa - Sonora majest
TTITLE3=Pepe - Los chicas del can can
TTITLE4=la tete a gaston - Fatal mambo
TTITLE5=Por encima del nivel - Los van van
TTITLE6=Azuquita mami - johnny pacheco
TTITLE7=la guagua - Celia cruz
TTITLE8=Chan chan - Compay segundo
TTITLE9=Fuego y candela - Adalberto sa
TTITLE10=Salsa caliente del japon - Orq
TTITLE11=Lastima que se as ajena - Oscar
TTITLE12=Me voy pa moron - Fania all start
TTITLE13=Cafe con leche - Ray baretto
TTITLE14=Xiorama - Malavoi
EXTD=
EXTT0=
EXTT1=
EXTT2=
EXTT3=
EXTT4=
EXTT5=
EXTT6=
EXTT7=
EXTT8=
EXTT9=
EXTT10=
EXTT11=
EXTT12=
EXTT13=
EXTT14=
PLAYORDER=
